Coordinates
version=1
nRows=38
nColumns=12
inDegrees=yes

Units are S.I. units (second, meters, Newtons, ...)
Angles are in degrees

endheader
time	SC_y	SC_z	SC_x	AC_y	AC_z	AC_x	GH_y	GH_z	GH_yy	EL_x	PS_y
       0.0              -16.17          16.03          30.96          33.97         -14.65          12.47         -4.445          61.08          137.1          44.51          94.47
  0.002481              -16.17          16.03          30.97          33.98         -14.65          12.47         -4.466          61.08          137.1          44.51          94.48
  0.004963              -16.17          16.02          30.97          33.98         -14.65          12.47         -4.488          61.08          137.1          44.52          94.48
  0.007444              -16.17          16.02          30.98          33.99         -14.65          12.47         -4.512          61.08          137.1          44.53          94.49
  0.009926              -16.17          16.02          30.99          33.99         -14.65          12.47         -4.538          61.08          137.0          44.54           94.5
   0.01241              -16.17          16.01          30.99           34.0         -14.64          12.47         -4.565          61.09          137.0          44.55          94.51
   0.01489              -16.17          16.01           31.0           34.0         -14.64          12.47         -4.594          61.09          136.9          44.56          94.52
   0.01737              -16.17          16.01          31.01          34.01         -14.64          12.47         -4.625          61.09          136.9          44.57          94.52
   0.01985              -16.17           16.0          31.02          34.01         -14.64          12.47         -4.658          61.09          136.9          44.58          94.53
   0.02233              -16.17           16.0          31.03          34.02         -14.64          12.47         -4.694           61.1          136.8          44.59          94.55
   0.02481              -16.16          15.99          31.04          34.03         -14.64          12.47         -4.732           61.1          136.8           44.6          94.56
    0.0273              -16.16          15.98          31.05          34.04         -14.63          12.47         -4.774           61.1          136.7          44.62          94.57
   0.02978              -16.16          15.98          31.07          34.04         -14.63          12.47         -4.818           61.1          136.7          44.63          94.58
   0.03226              -16.16          15.97          31.08          34.05         -14.63          12.47         -4.866          61.11          136.6          44.65           94.6
   0.03474              -16.16          15.96           31.1          34.06         -14.63          12.47         -4.918          61.11          136.6          44.67          94.61
   0.03722              -16.16          15.96          31.11          34.07         -14.62          12.47         -4.974          61.11          136.5          44.68          94.63
    0.0397              -16.16          15.95          31.13          34.09         -14.62          12.47         -5.036          61.12          136.4          44.71          94.65
   0.04218              -16.15          15.94          31.15           34.1         -14.62          12.47         -5.102          61.12          136.3          44.73          94.67
   0.04466              -16.15          15.93          31.17          34.11         -14.61          12.47         -5.175          61.13          136.2          44.75          94.69
   0.04715              -16.15          15.92          31.19          34.13         -14.61          12.47         -5.255          61.13          136.1          44.78          94.71
   0.04963              -16.15          15.91          31.22          34.14          -14.6          12.47         -5.342          61.14          136.0          44.81          94.74
   0.05211              -16.14          15.89          31.25          34.16          -14.6          12.47         -5.439          61.14          135.9          44.84          94.76
   0.05459              -16.14          15.88          31.28          34.18         -14.59          12.47         -5.545          61.15          135.8          44.88           94.8
   0.05707              -16.14          15.86          31.31           34.2         -14.59          12.47         -5.663          61.16          135.6          44.92          94.83
   0.05955              -16.13          15.84          31.35          34.23         -14.58          12.47         -5.794          61.17          135.5          44.96          94.87
   0.06203              -16.13          15.82          31.39          34.26         -14.57          12.47         -5.941          61.18          135.3          45.01          94.91
   0.06452              -16.12           15.8          31.44          34.29         -14.56          12.47         -6.105          61.19          135.1          45.07          94.96
     0.067              -16.12          15.77          31.49          34.32         -14.55          12.47         -6.289           61.2          134.9          45.13          95.02
   0.06948              -16.11          15.74          31.55          34.36         -14.54          12.48         -6.497          61.21          134.6           45.2          95.08
   0.07196              -16.11          15.71          31.62           34.4         -14.53          12.48         -6.734          61.23          134.3          45.28          95.15
   0.07444               -16.1          15.67           31.7          34.46         -14.52          12.48         -7.004          61.25          134.0          45.37          95.23
   0.07692              -16.09          15.63          31.79          34.51          -14.5          12.48         -7.314          61.27          133.6          45.47          95.32
    0.0794              -16.08          15.58          31.89          34.58         -14.48          12.48         -7.671          61.29          133.2          45.59          95.42
   0.08189              -16.07          15.52          32.01          34.66         -14.46          12.48         -8.087          61.32          132.6          45.73          95.55
   0.08437              -16.05          15.45          32.15          34.75         -14.43          12.48         -8.573          61.35          132.1           45.9          95.69
   0.08685              -16.04          15.37          32.31          34.86          -14.4          12.48         -9.146          61.39          131.3          46.09          95.86
   0.08933              -16.02          15.28          32.51          34.99         -14.37          12.49         -9.828          61.43          130.5          46.32          96.06
   0.09181              -15.99          15.16          32.74          35.14         -14.33          12.49         -10.64          61.49          129.5           46.6           96.3
